<svg width="54" height="20" viewBox="0 0 54 20" fill="none" xmlns="http://www.w3.org/2000/svg">
<path fill-rule="evenodd" clip-rule="evenodd" d="M6.81149 1.40667C3.35125 5.47028 0.0335383 10.5095 0.000270099 14.2762C-0.012687 15.6934 0.43976 16.9306 1.525 17.8678C3.08685 19.2174 4.80769 19.6933 6.52013 19.6961C9.02259 19.6996 11.5076 18.69 13.4532 17.9115C16.7299 16.6011 52.9513 0.871574 52.9513 0.871574C53.3008 0.696479 53.2353 0.478311 52.7979 0.587221C52.6214 0.631345 13.3653 11.2698 13.3653 11.2698C12.6217 11.4801 11.8534 11.5901 11.0807 11.5969C8.06377 11.6147 5.37921 9.94012 5.40092 6.41125C5.40932 5.03044 5.832 3.36529 6.81149 1.40667Z" fill="black"/>
</svg>
