<svg width="158" height="56" viewBox="0 0 158 56" fill="none" xmlns="http://www.w3.org/2000/svg">
<path d="M7.845 23H17.125L24.005 0.599998H16.805L12.805 14.36H12.165L8.165 0.599998H0.965L7.845 23ZM25.2425 23H32.4425L33.4025 19.64H40.7625L41.7225 23H48.9225L41.7225 0.599998H32.4425L25.2425 23ZM35.0025 13.88L36.7625 7.8H37.4025L39.1625 13.88H35.0025ZM53.3538 23H60.0738V16.6L64.8738 23H72.8738L67.2738 16.28C70.1538 15.32 72.5538 12.92 72.5538 8.76C72.5538 3.8 69.0338 0.599998 64.5538 0.599998H53.3538V23ZM60.0738 10.68V6.84H64.0738C65.0338 6.84 65.8338 7.64 65.8338 8.76C65.8338 9.88 65.0338 10.68 64.0738 10.68H60.0738ZM86.9 23.48C93.14 23.48 96.34 20.28 96.34 16.12C96.34 12.12 94.42 10.2 89.94 9.4L86.42 8.76C84.82 8.472 84.34 7.96 84.34 7.32C84.34 6.68 84.98 6.04 86.74 6.04C88.5 6.04 89.46 7 89.46 8.28H96.18C96.18 3.48 92.82 0.119999 86.58 0.119999C80.82 0.119999 77.62 3.32 77.62 7.32C77.62 11.32 79.54 13.24 83.86 14.04L87.38 14.68C89.14 15 89.62 15.48 89.62 16.12C89.62 16.92 88.98 17.56 86.9 17.56C84.82 17.56 83.86 16.6 83.86 15.32H77.14C77.14 20.12 80.5 23.48 86.9 23.48ZM101.885 23H108.605V0.599998H101.885V23ZM119.615 23H126.335V7.16H131.935V0.599998H114.015V7.16H119.615V23ZM142.923 23H149.643V16.28L157.643 0.599998H150.283L146.603 8.28H145.963L142.283 0.599998H134.922L142.923 16.28V23ZM18.8225 55H25.5425V49.24H29.7025C34.5025 49.24 37.7025 46.04 37.7025 40.92C37.7025 35.8 34.5025 32.6 29.7025 32.6H18.8225V55ZM25.5425 42.84V39H29.2225C30.1825 39 30.9825 39.8 30.9825 40.92C30.9825 42.04 30.1825 42.84 29.2225 42.84H25.5425ZM53.0163 55.32C58.9363 55.32 62.7763 51.48 62.7763 45.4V32.6H56.0563V45.4C56.0563 47.48 54.7763 48.76 53.0163 48.76C51.2563 48.76 49.9763 47.48 49.9763 45.4V32.6H43.2563V45.4C43.2563 51.48 47.0963 55.32 53.0163 55.32ZM69.135 55H75.855V48.6L80.655 55H88.655L83.055 48.28C85.935 47.32 88.335 44.92 88.335 40.76C88.335 35.8 84.815 32.6 80.335 32.6H69.135V55ZM75.855 42.68V38.84H79.855C80.815 38.84 81.615 39.64 81.615 40.76C81.615 41.88 80.815 42.68 79.855 42.68H75.855ZM94.0413 55H100.761V49.24H104.921C109.721 49.24 112.921 46.04 112.921 40.92C112.921 35.8 109.721 32.6 104.921 32.6H94.0413V55ZM100.761 42.84V39H104.441C105.401 39 106.201 39.8 106.201 40.92C106.201 42.04 105.401 42.84 104.441 42.84H100.761ZM118.635 55H134.635V48.44H125.355V32.6H118.635V55ZM139.729 55H155.729V48.92H146.449V46.68H155.089V40.92H146.449V38.68H155.729V32.6H139.729V55Z" fill="#F1F0F8"/>
<path d="M7.845 23L6.17213 23.5138L6.55182 24.75H7.845V23ZM17.125 23V24.75H18.4182L18.7979 23.5138L17.125 23ZM24.005 0.599998L25.6779 1.11381L26.3732 -1.15H24.005V0.599998ZM16.805 0.599998V-1.15H15.4913L15.1246 0.111499L16.805 0.599998ZM12.805 14.36V16.11H14.1187L14.4854 14.8485L12.805 14.36ZM12.165 14.36L10.4846 14.8485L10.8513 16.11H12.165V14.36ZM8.165 0.599998L9.84544 0.111499L9.47872 -1.15H8.165V0.599998ZM0.965 0.599998V-1.15H-1.40318L-0.707871 1.11381L0.965 0.599998ZM7.845 24.75H17.125V21.25H7.845V24.75ZM18.7979 23.5138L25.6779 1.11381L22.3321 0.0861878L15.4521 22.4862L18.7979 23.5138ZM24.005 -1.15H16.805V2.35H24.005V-1.15ZM15.1246 0.111499L11.1246 13.8715L14.4854 14.8485L18.4854 1.0885L15.1246 0.111499ZM12.805 12.61H12.165V16.11H12.805V12.61ZM13.8454 13.8715L9.84544 0.111499L6.48456 1.0885L10.4846 14.8485L13.8454 13.8715ZM8.165 -1.15H0.965V2.35H8.165V-1.15ZM-0.707871 1.11381L6.17213 23.5138L9.51787 22.4862L2.63787 0.0861881L-0.707871 1.11381ZM25.2425 23L23.5765 22.4645L22.8418 24.75H25.2425V23ZM32.4425 23V24.75H33.7625L34.1252 23.4808L32.4425 23ZM33.4025 19.64V17.89H32.0825L31.7198 19.1592L33.4025 19.64ZM40.7625 19.64L42.4452 19.1592L42.0825 17.89H40.7625V19.64ZM41.7225 23L40.0398 23.4808L40.4025 24.75H41.7225V23ZM48.9225 23V24.75H51.3232L50.5886 22.4645L48.9225 23ZM41.7225 0.599998L43.3885 0.0644825L42.9982 -1.15H41.7225V0.599998ZM32.4425 0.599998V-1.15H31.1668L30.7764 0.0644825L32.4425 0.599998ZM35.0025 13.88L33.3215 13.3934L32.6741 15.63H35.0025V13.88ZM36.7625 7.8V6.05H35.4472L35.0815 7.3134L36.7625 7.8ZM37.4025 7.8L39.0835 7.3134L38.7178 6.05H37.4025V7.8ZM39.1625 13.88V15.63H41.4909L40.8435 13.3934L39.1625 13.88ZM25.2425 24.75H32.4425V21.25H25.2425V24.75ZM34.1252 23.4808L35.0852 20.1208L31.7198 19.1592L30.7598 22.5192L34.1252 23.4808ZM33.4025 21.39H40.7625V17.89H33.4025V21.39ZM39.0798 20.1208L40.0398 23.4808L43.4052 22.5192L42.4452 19.1592L39.0798 20.1208ZM41.7225 24.75H48.9225V21.25H41.7225V24.75ZM50.5886 22.4645L43.3885 0.0644825L40.0564 1.13551L47.2565 23.5355L50.5886 22.4645ZM41.7225 -1.15H32.4425V2.35H41.7225V-1.15ZM30.7764 0.0644825L23.5765 22.4645L26.9086 23.5355L34.1086 1.13551L30.7764 0.0644825ZM36.6835 14.3666L38.4435 8.2866L35.0815 7.3134L33.3215 13.3934L36.6835 14.3666ZM36.7625 9.55H37.4025V6.05H36.7625V9.55ZM35.7215 8.2866L37.4815 14.3666L40.8435 13.3934L39.0835 7.3134L35.7215 8.2866ZM39.1625 12.13H35.0025V15.63H39.1625V12.13ZM53.3537 23H51.6037V24.75H53.3537V23ZM60.0737 23V24.75H61.8237V23H60.0737ZM60.0737 16.6L61.4738 15.55L58.3237 11.35V16.6H60.0737ZM64.8737 23L63.4738 24.05L63.9988 24.75H64.8737V23ZM72.8737 23V24.75H76.6101L74.2181 21.8797L72.8737 23ZM67.2738 16.28L66.7204 14.6198L64.2879 15.4306L65.9294 17.4003L67.2738 16.28ZM53.3537 0.599998V-1.15H51.6037V0.599998H53.3537ZM60.0737 10.68H58.3237V12.43H60.0737V10.68ZM60.0737 6.84V5.09H58.3237V6.84H60.0737ZM53.3537 24.75H60.0737V21.25H53.3537V24.75ZM61.8237 23V16.6H58.3237V23H61.8237ZM58.6738 17.65L63.4738 24.05L66.2738 21.95L61.4738 15.55L58.6738 17.65ZM64.8737 24.75H72.8737V21.25H64.8737V24.75ZM74.2181 21.8797L68.6181 15.1597L65.9294 17.4003L71.5294 24.1203L74.2181 21.8797ZM67.8271 17.9402C71.326 16.7739 74.3037 13.7695 74.3037 8.76H70.8037C70.8037 12.0705 68.9815 13.8661 66.7204 14.6198L67.8271 17.9402ZM74.3037 8.76C74.3037 2.81051 69.9771 -1.15 64.5537 -1.15V2.35C68.0904 2.35 70.8037 4.78949 70.8037 8.76H74.3037ZM64.5537 -1.15H53.3537V2.35H64.5537V-1.15ZM51.6037 0.599998V23H55.1037V0.599998H51.6037ZM61.8237 10.68V6.84H58.3237V10.68H61.8237ZM60.0737 8.59H64.0737V5.09H60.0737V8.59ZM64.0737 8.59C64.0684 8.59 64.0584 8.58846 64.0483 8.58402C64.0391 8.57995 64.0367 8.57654 64.0394 8.57939C64.042 8.5821 64.0518 8.5935 64.0618 8.61924C64.0715 8.64435 64.0838 8.68964 64.0838 8.76H67.5837C67.5837 6.77496 66.0987 5.09 64.0737 5.09V8.59ZM64.0838 8.76C64.0838 8.83036 64.0715 8.87565 64.0618 8.90076C64.0518 8.9265 64.042 8.9379 64.0394 8.94061C64.0367 8.94346 64.0391 8.94005 64.0483 8.93598C64.0584 8.93154 64.0684 8.93 64.0737 8.93V12.43C66.0987 12.43 67.5837 10.745 67.5837 8.76H64.0838ZM64.0737 8.93H60.0737V12.43H64.0737V8.93ZM89.94 9.4L89.627 11.1218L89.6324 11.1227L89.94 9.4ZM86.42 8.76L86.733 7.03822L86.73 7.03768L86.42 8.76ZM89.46 8.28H87.71V10.03H89.46V8.28ZM96.18 8.28V10.03H97.93V8.28H96.18ZM83.86 14.04L83.5413 15.7608L83.547 15.7618L83.86 14.04ZM87.38 14.68L87.693 12.9582L87.38 14.68ZM83.86 15.32H85.61V13.57H83.86V15.32ZM77.14 15.32V13.57H75.39V15.32H77.14ZM86.9 25.23C90.3048 25.23 93.1029 24.3564 95.082 22.703C97.0897 21.0257 98.09 18.6787 98.09 16.12H94.59C94.59 17.7213 93.9903 19.0543 92.838 20.017C91.6571 21.0036 89.7352 21.73 86.9 21.73V25.23ZM98.09 16.12C98.09 13.8395 97.5366 11.8582 96.0806 10.3461C94.6686 8.87989 92.6419 8.1048 90.2476 7.67725L89.6324 11.1227C91.7181 11.4952 92.8914 12.0801 93.5594 12.7739C94.1834 13.4218 94.59 14.4005 94.59 16.12H98.09ZM90.2531 7.67823L86.733 7.03823L86.1069 10.4818L89.627 11.1218L90.2531 7.67823ZM86.73 7.03768C86.3993 6.97815 86.1712 6.91473 86.0198 6.85948C85.8665 6.80357 85.8248 6.76796 85.8411 6.78039C85.8662 6.79952 85.9453 6.86979 86.0107 7.00292C86.0761 7.13604 86.09 7.25509 86.09 7.32H82.59C82.59 8.17792 82.9585 8.98376 83.7189 9.56361C84.3667 10.0576 85.211 10.3205 86.11 10.4823L86.73 7.03768ZM86.09 7.32C86.09 7.45967 86.0528 7.60548 85.9791 7.73177C85.907 7.85533 85.8299 7.90985 85.8145 7.9196C85.808 7.92372 86.0364 7.79 86.74 7.79V4.29C85.6836 4.29 84.712 4.47628 83.9455 4.96039C83.1139 5.48565 82.59 6.33616 82.59 7.32H86.09ZM86.74 7.79C87.3107 7.79 87.546 7.94343 87.6117 8.00056C87.6571 8.04003 87.71 8.10196 87.71 8.28H91.21C91.21 7.17804 90.7829 6.11997 89.9083 5.35944C89.054 4.61657 87.9293 4.29 86.74 4.29V7.79ZM89.46 10.03H96.18V6.53H89.46V10.03ZM97.93 8.28C97.93 5.45204 96.9268 2.90908 94.8826 1.09203C92.8597 -0.706165 90.0034 -1.63 86.58 -1.63V1.87C89.3966 1.87 91.3403 2.62616 92.5574 3.70797C93.7532 4.77092 94.43 6.30796 94.43 8.28H97.93ZM86.58 -1.63C83.3826 -1.63 80.7078 -0.739455 78.8026 0.890066C76.8803 2.53409 75.87 4.8265 75.87 7.32H79.37C79.37 5.8135 79.9597 4.50591 81.0774 3.54993C82.2122 2.57945 84.0174 1.87 86.58 1.87V-1.63ZM75.87 7.32C75.87 9.60015 76.423 11.573 77.8477 13.0816C79.2343 14.5497 81.2182 15.3305 83.5413 15.7607L84.1787 12.3193C82.1818 11.9495 81.0457 11.3703 80.3923 10.6784C79.7771 10.027 79.37 9.03985 79.37 7.32H75.87ZM83.547 15.7618L87.0669 16.4018L87.693 12.9582L84.173 12.3182L83.547 15.7618ZM87.0669 16.4018C87.4501 16.4714 87.7203 16.5423 87.9064 16.6059C88.0959 16.6707 88.1573 16.7143 88.1508 16.7097C88.1339 16.6977 88.0417 16.6258 87.9635 16.4747C87.8845 16.3221 87.87 16.186 87.87 16.12H91.37C91.37 15.734 91.2955 15.2979 91.0715 14.8653C90.8483 14.4342 90.5261 14.1023 90.1692 13.8503C89.5092 13.3844 88.6397 13.1304 87.693 12.9582L87.0669 16.4018ZM87.87 16.12C87.87 16.0834 87.8787 15.9795 87.9452 15.8555C88.0142 15.727 88.0978 15.6651 88.1189 15.652C88.1279 15.6465 88.0593 15.6903 87.85 15.7334C87.6427 15.776 87.3357 15.81 86.9 15.81V19.31C88.0618 19.31 89.1313 19.1417 89.9611 18.628C90.9323 18.0267 91.37 17.0826 91.37 16.12H87.87ZM86.9 15.81C86.1041 15.81 85.7813 15.6239 85.6932 15.5535C85.652 15.5205 85.61 15.4869 85.61 15.32H82.11C82.11 16.4331 82.548 17.5195 83.5068 18.2865C84.4187 19.0161 85.6159 19.31 86.9 19.31V15.81ZM83.86 13.57H77.14V17.07H83.86V13.57ZM75.39 15.32C75.39 18.1492 76.3944 20.6966 78.4653 22.515C80.5116 24.3117 83.4071 25.23 86.9 25.23V21.73C83.9929 21.73 82.0084 20.9683 80.7747 19.885C79.5656 18.8234 78.89 17.2908 78.89 15.32H75.39ZM101.885 23H100.135V24.75H101.885V23ZM108.605 23V24.75H110.355V23H108.605ZM108.605 0.599998H110.355V-1.15H108.605V0.599998ZM101.885 0.599998V-1.15H100.135V0.599998H101.885ZM101.885 24.75H108.605V21.25H101.885V24.75ZM110.355 23V0.599998H106.855V23H110.355ZM108.605 -1.15H101.885V2.35H108.605V-1.15ZM100.135 0.599998V23H103.635V0.599998H100.135ZM119.615 23H117.865V24.75H119.615V23ZM126.335 23V24.75H128.085V23H126.335ZM126.335 7.16V5.41H124.585V7.16H126.335ZM131.935 7.16V8.91H133.685V7.16H131.935ZM131.935 0.599998H133.685V-1.15H131.935V0.599998ZM114.015 0.599998V-1.15H112.265V0.599998H114.015ZM114.015 7.16H112.265V8.91H114.015V7.16ZM119.615 7.16H121.365V5.41H119.615V7.16ZM119.615 24.75H126.335V21.25H119.615V24.75ZM128.085 23V7.16H124.585V23H128.085ZM126.335 8.91H131.935V5.41H126.335V8.91ZM133.685 7.16V0.599998H130.185V7.16H133.685ZM131.935 -1.15H114.015V2.35H131.935V-1.15ZM112.265 0.599998V7.16H115.765V0.599998H112.265ZM114.015 8.91H119.615V5.41H114.015V8.91ZM117.865 7.16V23H121.365V7.16H117.865ZM142.923 23H141.173V24.75H142.923V23ZM149.643 23V24.75H151.393V23H149.643ZM149.643 16.28L148.084 15.4847L147.893 15.8594V16.28H149.643ZM157.643 0.599998L159.201 1.39532L160.5 -1.15H157.643V0.599998ZM150.283 0.599998V-1.15H149.181L148.704 -0.156212L150.283 0.599998ZM146.603 8.28V10.03H147.704L148.181 9.03621L146.603 8.28ZM145.962 8.28L144.384 9.03621L144.861 10.03H145.962V8.28ZM142.283 0.599998L143.861 -0.156212L143.384 -1.15H142.283V0.599998ZM134.923 0.599998V-1.15H132.065L133.364 1.39532L134.923 0.599998ZM142.923 16.28H144.673V15.8594L144.481 15.4847L142.923 16.28ZM142.923 24.75H149.643V21.25H142.923V24.75ZM151.393 23V16.28H147.893V23H151.393ZM151.201 17.0753L159.201 1.39532L156.084 -0.195325L148.084 15.4847L151.201 17.0753ZM157.643 -1.15H150.283V2.35H157.643V-1.15ZM148.704 -0.156212L145.024 7.52379L148.181 9.03621L151.861 1.35621L148.704 -0.156212ZM146.603 6.53H145.962V10.03H146.603V6.53ZM147.541 7.52379L143.861 -0.156212L140.704 1.35621L144.384 9.03621L147.541 7.52379ZM142.283 -1.15H134.923V2.35H142.283V-1.15ZM133.364 1.39532L141.364 17.0753L144.481 15.4847L136.481 -0.195325L133.364 1.39532ZM141.173 16.28V23H144.673V16.28H141.173ZM18.8225 55H17.0725V56.75H18.8225V55ZM25.5425 55V56.75H27.2925V55H25.5425ZM25.5425 49.24V47.49H23.7925V49.24H25.5425ZM18.8225 32.6V30.85H17.0725V32.6H18.8225ZM25.5425 42.84H23.7925V44.59H25.5425V42.84ZM25.5425 39V37.25H23.7925V39H25.5425ZM18.8225 56.75H25.5425V53.25H18.8225V56.75ZM27.2925 55V49.24H23.7925V55H27.2925ZM25.5425 50.99H29.7025V47.49H25.5425V50.99ZM29.7025 50.99C32.5016 50.99 34.9798 50.0481 36.7572 48.2199C38.531 46.3955 39.4525 43.8482 39.4525 40.92H35.9525C35.9525 43.1118 35.274 44.7245 34.2478 45.7801C33.2252 46.8319 31.7034 47.49 29.7025 47.49V50.99ZM39.4525 40.92C39.4525 37.9918 38.531 35.4445 36.7572 33.6201C34.9798 31.7919 32.5016 30.85 29.7025 30.85V34.35C31.7034 34.35 33.2252 35.0081 34.2478 36.0599C35.274 37.1155 35.9525 38.7282 35.9525 40.92H39.4525ZM29.7025 30.85H18.8225V34.35H29.7025V30.85ZM17.0725 32.6V55H20.5725V32.6H17.0725ZM27.2925 42.84V39H23.7925V42.84H27.2925ZM25.5425 40.75H29.2225V37.25H25.5425V40.75ZM29.2225 40.75C29.2172 40.75 29.2071 40.7485 29.1971 40.744C29.1878 40.7399 29.1855 40.7365 29.1882 40.7394C29.1907 40.7421 29.2005 40.7535 29.2105 40.7792C29.2202 40.8044 29.2325 40.8496 29.2325 40.92H32.7325C32.7325 38.935 31.2474 37.25 29.2225 37.25V40.75ZM29.2325 40.92C29.2325 40.9904 29.2202 41.0356 29.2105 41.0608C29.2005 41.0865 29.1907 41.0979 29.1882 41.1006C29.1855 41.1035 29.1878 41.1001 29.1971 41.096C29.2071 41.0915 29.2172 41.09 29.2225 41.09V44.59C31.2474 44.59 32.7325 42.905 32.7325 40.92H29.2325ZM29.2225 41.09H25.5425V44.59H29.2225V41.09ZM62.7763 32.6H64.5263V30.85H62.7763V32.6ZM56.0563 32.6V30.85H54.3063V32.6H56.0563ZM49.9762 32.6H51.7262V30.85H49.9762V32.6ZM43.2562 32.6V30.85H41.5062V32.6H43.2562ZM53.0163 57.07C56.3623 57.07 59.2789 55.9767 61.3609 53.8702C63.4413 51.7654 64.5263 48.8133 64.5263 45.4H61.0263C61.0263 48.0667 60.1912 50.0746 58.8716 51.4098C57.5536 52.7433 55.5902 53.57 53.0163 53.57V57.07ZM64.5263 45.4V32.6H61.0263V45.4H64.5263ZM62.7763 30.85H56.0563V34.35H62.7763V30.85ZM54.3063 32.6V45.4H57.8063V32.6H54.3063ZM54.3063 45.4C54.3063 46.0795 54.1023 46.4668 53.9154 46.6675C53.7357 46.8605 53.4551 47.01 53.0163 47.01V50.51C54.3374 50.51 55.5768 50.0195 56.4771 49.0525C57.3702 48.0932 57.8063 46.8005 57.8063 45.4H54.3063ZM53.0163 47.01C52.5774 47.01 52.2968 46.8605 52.1171 46.6675C51.9302 46.4668 51.7262 46.0795 51.7262 45.4H48.2262C48.2262 46.8005 48.6623 48.0932 49.5554 49.0525C50.4557 50.0195 51.6951 50.51 53.0163 50.51V47.01ZM51.7262 45.4V32.6H48.2262V45.4H51.7262ZM49.9762 30.85H43.2562V34.35H49.9762V30.85ZM41.5062 32.6V45.4H45.0062V32.6H41.5062ZM41.5062 45.4C41.5062 48.8133 42.5912 51.7654 44.6716 53.8702C46.7536 55.9767 49.6702 57.07 53.0163 57.07V53.57C50.4423 53.57 48.4789 52.7433 47.1609 51.4098C45.8413 50.0746 45.0062 48.0667 45.0062 45.4H41.5062ZM69.135 55H67.385V56.75H69.135V55ZM75.855 55V56.75H77.605V55H75.855ZM75.855 48.6L77.255 47.55L74.105 43.35V48.6H75.855ZM80.655 55L79.255 56.05L79.78 56.75H80.655V55ZM88.655 55V56.75H92.3913L89.9994 53.8797L88.655 55ZM83.055 48.28L82.5016 46.6198L80.0692 47.4306L81.7106 49.4003L83.055 48.28ZM69.135 32.6V30.85H67.385V32.6H69.135ZM75.855 42.68H74.105V44.43H75.855V42.68ZM75.855 38.84V37.09H74.105V38.84H75.855ZM69.135 56.75H75.855V53.25H69.135V56.75ZM77.605 55V48.6H74.105V55H77.605ZM74.455 49.65L79.255 56.05L82.055 53.95L77.255 47.55L74.455 49.65ZM80.655 56.75H88.655V53.25H80.655V56.75ZM89.9994 53.8797L84.3994 47.1597L81.7106 49.4003L87.3106 56.1203L89.9994 53.8797ZM83.6084 49.9402C87.1072 48.7739 90.085 45.7695 90.085 40.76H86.585C86.585 44.0705 84.7628 45.8661 82.5016 46.6198L83.6084 49.9402ZM90.085 40.76C90.085 34.8105 85.7583 30.85 80.335 30.85V34.35C83.8717 34.35 86.585 36.7895 86.585 40.76H90.085ZM80.335 30.85H69.135V34.35H80.335V30.85ZM67.385 32.6V55H70.885V32.6H67.385ZM77.605 42.68V38.84H74.105V42.68H77.605ZM75.855 40.59H79.855V37.09H75.855V40.59ZM79.855 40.59C79.8497 40.59 79.8396 40.5885 79.8296 40.584C79.8203 40.5799 79.818 40.5765 79.8206 40.5794C79.8232 40.5821 79.833 40.5935 79.843 40.6192C79.8527 40.6444 79.865 40.6896 79.865 40.76H83.365C83.365 38.775 81.8799 37.09 79.855 37.09V40.59ZM79.865 40.76C79.865 40.8304 79.8527 40.8756 79.843 40.9008C79.833 40.9265 79.8232 40.9379 79.8206 40.9406C79.818 40.9435 79.8203 40.9401 79.8296 40.936C79.8396 40.9315 79.8497 40.93 79.855 40.93V44.43C81.8799 44.43 83.365 42.745 83.365 40.76H79.865ZM79.855 40.93H75.855V44.43H79.855V40.93ZM94.0413 55H92.2913V56.75H94.0413V55ZM100.761 55V56.75H102.511V55H100.761ZM100.761 49.24V47.49H99.0113V49.24H100.761ZM94.0413 32.6V30.85H92.2913V32.6H94.0413ZM100.761 42.84H99.0113V44.59H100.761V42.84ZM100.761 39V37.25H99.0113V39H100.761ZM94.0413 56.75H100.761V53.25H94.0413V56.75ZM102.511 55V49.24H99.0113V55H102.511ZM100.761 50.99H104.921V47.49H100.761V50.99ZM104.921 50.99C107.72 50.99 110.199 50.0481 111.976 48.2199C113.75 46.3955 114.671 43.8482 114.671 40.92H111.171C111.171 43.1118 110.493 44.7245 109.467 45.7801C108.444 46.8319 106.922 47.49 104.921 47.49V50.99ZM114.671 40.92C114.671 37.9918 113.75 35.4445 111.976 33.6201C110.199 31.7919 107.72 30.85 104.921 30.85V34.35C106.922 34.35 108.444 35.0081 109.467 36.0599C110.493 37.1155 111.171 38.7282 111.171 40.92H114.671ZM104.921 30.85H94.0413V34.35H104.921V30.85ZM92.2913 32.6V55H95.7913V32.6H92.2913ZM102.511 42.84V39H99.0113V42.84H102.511ZM100.761 40.75H104.441V37.25H100.761V40.75ZM104.441 40.75C104.436 40.75 104.426 40.7485 104.416 40.744C104.407 40.7399 104.404 40.7365 104.407 40.7394C104.409 40.7421 104.419 40.7535 104.429 40.7792C104.439 40.8044 104.451 40.8496 104.451 40.92H107.951C107.951 38.935 106.466 37.25 104.441 37.25V40.75ZM104.451 40.92C104.451 40.9904 104.439 41.0356 104.429 41.0608C104.419 41.0865 104.409 41.0979 104.407 41.1006C104.404 41.1035 104.407 41.1001 104.416 41.096C104.426 41.0915 104.436 41.09 104.441 41.09V44.59C106.466 44.59 107.951 42.905 107.951 40.92H104.451ZM104.441 41.09H100.761V44.59H104.441V41.09ZM118.635 55H116.885V56.75H118.635V55ZM134.635 55V56.75H136.385V55H134.635ZM134.635 48.44H136.385V46.69H134.635V48.44ZM125.355 48.44H123.605V50.19H125.355V48.44ZM125.355 32.6H127.105V30.85H125.355V32.6ZM118.635 32.6V30.85H116.885V32.6H118.635ZM118.635 56.75H134.635V53.25H118.635V56.75ZM136.385 55V48.44H132.885V55H136.385ZM134.635 46.69H125.355V50.19H134.635V46.69ZM127.105 48.44V32.6H123.605V48.44H127.105ZM125.355 30.85H118.635V34.35H125.355V30.85ZM116.885 32.6V55H120.385V32.6H116.885ZM139.729 55H137.979V56.75H139.729V55ZM155.729 55V56.75H157.479V55H155.729ZM155.729 48.92H157.479V47.17H155.729V48.92ZM146.449 48.92H144.699V50.67H146.449V48.92ZM146.449 46.68V44.93H144.699V46.68H146.449ZM155.089 46.68V48.43H156.839V46.68H155.089ZM155.089 40.92H156.839V39.17H155.089V40.92ZM146.449 40.92H144.699V42.67H146.449V40.92ZM146.449 38.68V36.93H144.699V38.68H146.449ZM155.729 38.68V40.43H157.479V38.68H155.729ZM155.729 32.6H157.479V30.85H155.729V32.6ZM139.729 32.6V30.85H137.979V32.6H139.729ZM139.729 56.75H155.729V53.25H139.729V56.75ZM157.479 55V48.92H153.979V55H157.479ZM155.729 47.17H146.449V50.67H155.729V47.17ZM148.199 48.92V46.68H144.699V48.92H148.199ZM146.449 48.43H155.089V44.93H146.449V48.43ZM156.839 46.68V40.92H153.339V46.68H156.839ZM155.089 39.17H146.449V42.67H155.089V39.17ZM148.199 40.92V38.68H144.699V40.92H148.199ZM146.449 40.43H155.729V36.93H146.449V40.43ZM157.479 38.68V32.6H153.979V38.68H157.479ZM155.729 30.85H139.729V34.35H155.729V30.85ZM137.979 32.6V55H141.479V32.6H137.979Z" fill="white"/>
</svg>
